<svg width="70" height="63" viewBox="0 0 70 63" fill="none" xmlns="http://www.w3.org/2000/svg">
<path d="M36.6468 15.396L36.7418 15.4254L36.7459 15.4204C37.1896 15.5031 37.6239 15.226 37.7515 14.7791C38.9325 10.6618 42.6508 7.79099 46.7877 7.79099C47.2824 7.79099 47.6743 7.37624 47.6743 6.87665C47.6743 6.37703 47.2824 5.9623 46.7877 5.9623C41.6962 5.9623 37.4227 9.47918 36.0513 14.2608C35.9136 14.7399 36.175 15.25 36.6468 15.396Z" fill="#483EA8" stroke="#F9FFF9" stroke-width="0.3"/>
<path d="M57.1003 44.3292H52.6804C52.2736 44.3292 51.9437 43.9869 51.9437 43.5649C51.9437 43.1429 52.2736 42.8006 52.6804 42.8006H57.1003C63.193 42.8006 68.1503 37.6571 68.1503 31.3356C68.1503 25.0141 63.193 19.8706 57.1003 19.8706H56.994C56.7804 19.8706 56.5773 19.7745 56.4373 19.6069C56.2974 19.4393 56.2342 19.2171 56.2647 18.9976C56.3305 18.5216 56.3637 18.0433 56.3637 17.5776C56.3637 12.099 52.0673 7.64124 46.787 7.64124C44.7327 7.64124 42.7737 8.3073 41.1214 9.56789C40.7584 9.84469 40.2427 9.72185 40.0328 9.30747C35.3534 0.0623591 23.1314 -1.17916 16.7949 6.86327C14.1256 10.2514 13.0768 14.6589 13.9172 18.9545C14.0098 19.429 13.6599 19.8712 13.1952 19.8712H12.9001C6.80737 19.8712 1.85011 25.0146 1.85011 31.3362C1.85011 37.6577 6.80737 42.8011 12.9001 42.8011H17.32C17.7267 42.8011 18.0567 43.1435 18.0567 43.5655C18.0567 43.9875 17.7267 44.3298 17.32 44.3298H12.9001C5.99483 44.3298 0.376709 38.5007 0.376709 31.3361C0.376709 24.3725 5.6838 18.6706 12.3218 18.3561C11.6982 13.8994 12.8906 9.40407 15.6541 5.89585C22.4382 -2.71542 35.4395 -1.75021 40.9354 7.85199C42.6887 6.71149 44.695 6.11319 46.7867 6.11319C53.1841 6.11319 58.2534 11.7627 57.8099 18.3632C64.3867 18.7459 69.6233 24.4178 69.6233 31.3356C69.6233 38.5007 64.0052 44.3293 57.1 44.3293L57.1003 44.3292Z" fill="#483EA8"/>
<path d="M16.3346 43.1333C16.3346 53.7474 24.6584 62.3918 34.9014 62.3918C45.1445 62.3918 53.4682 53.7473 53.4682 43.1333C53.4682 32.5192 45.1445 23.8748 34.9014 23.8748C24.6583 23.8748 16.3346 32.5193 16.3346 43.1333ZM18.1083 43.1333C18.1083 33.5177 25.647 25.7038 34.9014 25.7038C44.1557 25.7038 51.6946 33.5176 51.6946 43.1333C51.6946 52.7489 44.1557 60.5628 34.9014 60.5628C25.6471 60.5628 18.1083 52.7491 18.1083 43.1333Z" fill="#483EA8" stroke="#F9FFF9" stroke-width="0.3"/>
<path d="M34.5487 50.8257C34.5487 51.2122 34.8523 51.5352 35.2381 51.5352C35.6238 51.5352 35.9274 51.2127 35.9274 50.8257V36.2765C35.9274 35.8899 35.6238 35.5669 35.2381 35.5669C34.8523 35.5669 34.5487 35.89 34.5487 36.2765V50.8257Z" fill="#483EA8" stroke="#483EA8" stroke-width="0.3"/>
<path d="M35.238 37.2855L39.0632 41.2543C39.1972 41.3933 39.3747 41.4641 39.5525 41.4641L35.238 37.2855ZM35.238 37.2855L31.4129 41.2542L35.238 37.2855ZM30.4341 41.2543C30.7037 41.5341 31.1434 41.5342 31.4128 41.2543L39.5526 41.4641C39.7301 41.4641 39.9077 41.3939 40.0419 41.2543C40.3086 40.9775 40.3086 40.5314 40.0419 40.2547L35.7274 35.7781C35.4577 35.4984 35.018 35.4982 34.7486 35.7781C34.7486 35.7782 34.7485 35.7782 34.7485 35.7782L30.4341 40.2547C30.1674 40.5315 30.1674 40.9776 30.4341 41.2543Z" fill="#483EA8" stroke="#483EA8" stroke-width="0.3"/>
</svg>
